<svg width="85" height="85" viewBox="0 0 85 85" fill="none" xmlns="http://www.w3.org/2000/svg">
<circle cx="42.5" cy="42.5" r="42" stroke="white"/>
<path d="M63.6745 56.3348H59.3156C59.1435 56.3348 58.9786 56.2665 58.8569 56.1448C58.7353 56.0232 58.6669 55.8582 58.6669 55.6862C58.6669 55.5141 58.7353 55.3491 58.8569 55.2275C58.9786 55.1058 59.1435 55.0375 59.3156 55.0375H63.6745C63.7897 55.0373 63.9001 54.9915 63.9816 54.91C64.0631 54.8286 64.1089 54.7181 64.1091 54.6029V52.5532C64.1075 51.1481 63.5487 49.8011 62.5552 48.8076C61.5617 47.8141 60.2147 47.2553 58.8096 47.2537H21.2983V53.8505C21.2986 54.1652 21.4238 54.4669 21.6463 54.6895C21.8689 54.912 22.1706 55.0372 22.4853 55.0375H25.2421C25.4141 55.0375 25.5791 55.1058 25.7007 55.2275C25.8224 55.3491 25.8907 55.5141 25.8907 55.6862C25.8907 55.8582 25.8224 56.0232 25.7007 56.1448C25.5791 56.2665 25.4141 56.3348 25.2421 56.3348H22.4853C21.8266 56.3341 21.1951 56.0722 20.7294 55.6064C20.2636 55.1406 20.0017 54.5091 20.001 53.8505V46.6051C20.001 46.433 20.0693 46.2681 20.191 46.1464C20.3126 46.0248 20.4776 45.9564 20.6496 45.9564H58.8096C60.5586 45.9583 62.2354 46.6539 63.4722 47.8907C64.7089 49.1274 65.4045 50.8042 65.4064 52.5532V54.6029C65.4059 55.0621 65.2232 55.5023 64.8986 55.827C64.5739 56.1517 64.1337 56.3343 63.6745 56.3348Z" fill="white"/>
<path d="M51.3502 56.3349H33.4021C33.23 56.3349 33.065 56.2666 32.9434 56.1449C32.8218 56.0233 32.7534 55.8583 32.7534 55.6862C32.7534 55.5142 32.8218 55.3492 32.9434 55.2276C33.065 55.1059 33.23 55.0376 33.4021 55.0376H51.3502C51.5222 55.0376 51.6872 55.1059 51.8088 55.2276C51.9305 55.3492 51.9988 55.5142 51.9988 55.6862C51.9988 55.8583 51.9305 56.0233 51.8088 56.1449C51.6872 56.2666 51.5222 56.3349 51.3502 56.3349Z" fill="white"/>
<path d="M20.6498 47.2571C20.6022 47.257 20.5548 47.2518 20.5084 47.2415C20.4252 47.2231 20.3464 47.1884 20.2766 47.1396C20.2068 47.0907 20.1474 47.0286 20.1016 46.9567C20.0558 46.8848 20.0246 46.8047 20.0098 46.7208C19.9951 46.6368 19.9969 46.5508 20.0154 46.4677C20.844 43.2415 22.7611 40.4003 25.4427 38.4244C26.297 37.8356 27.311 37.5221 28.3486 37.526H44.7296C45.6118 37.5271 46.4844 37.7102 47.2926 38.064C48.1008 38.4178 48.8272 38.9347 49.4264 39.5823L55.5043 46.1673C55.566 46.2291 55.6147 46.3027 55.6473 46.3837C55.6799 46.4647 55.6958 46.5515 55.6941 46.6388C55.6923 46.7262 55.673 46.8122 55.6372 46.8919C55.6014 46.9715 55.5498 47.0432 55.4857 47.1024C55.4215 47.1617 55.3461 47.2074 55.2638 47.2368C55.1816 47.2661 55.0942 47.2786 55.007 47.2734C54.9199 47.2683 54.8346 47.2455 54.7564 47.2066C54.6783 47.1677 54.6087 47.1133 54.5521 47.0469L48.4768 40.4638C47.999 39.9476 47.4198 39.5357 46.7755 39.2536C46.1311 38.9716 45.4355 38.8255 44.7322 38.8246H28.3492C27.5746 38.8218 26.8177 39.0561 26.1802 39.496C22.3434 42.1444 21.2932 46.7031 21.2835 46.7492C21.2515 46.8933 21.1712 47.0222 21.056 47.1146C20.9407 47.2069 20.7975 47.2572 20.6498 47.2571Z" fill="white"/>
<path d="M40.758 47.2571C40.6032 47.2568 40.4536 47.2013 40.3362 47.1004C40.2187 46.9995 40.1413 46.86 40.1177 46.707L38.8205 38.2746C38.8042 38.1889 38.8054 38.1008 38.8239 38.0156C38.8425 37.9304 38.878 37.8499 38.9284 37.7787C38.9788 37.7076 39.043 37.6473 39.1173 37.6015C39.1915 37.5558 39.2742 37.5254 39.3604 37.5124C39.4466 37.4993 39.5345 37.5037 39.619 37.5254C39.7034 37.547 39.7827 37.5855 39.8519 37.6385C39.9212 37.6915 39.979 37.7579 40.022 37.8338C40.065 37.9096 40.0923 37.9933 40.1022 38.08L41.3995 46.5124C41.4133 46.6047 41.407 46.6988 41.3811 46.7885C41.3552 46.8781 41.3103 46.9611 41.2494 47.0318C41.1885 47.1025 41.1131 47.1592 41.0283 47.1981C40.9435 47.2369 40.8513 47.2571 40.758 47.2571Z" fill="white"/>
<path d="M28.4338 47.2571C28.3691 47.2572 28.3048 47.2473 28.2431 47.2279C28.0787 47.1773 27.9412 47.0636 27.8607 46.9117C27.7802 46.7598 27.7633 46.5821 27.8137 46.4177L30.4083 37.9853C30.4333 37.9039 30.4741 37.8282 30.5284 37.7625C30.5827 37.6968 30.6494 37.6425 30.7247 37.6027C30.8 37.5628 30.8824 37.5381 30.9673 37.5301C31.0521 37.5221 31.1376 37.5308 31.2191 37.5559C31.3005 37.5809 31.3762 37.6218 31.4419 37.6761C31.5075 37.7304 31.5618 37.7971 31.6017 37.8724C31.6416 37.9476 31.6662 38.0301 31.6743 38.1149C31.6823 38.1997 31.6735 38.2853 31.6485 38.3667L29.0539 46.7991C29.0131 46.9317 28.9308 47.0478 28.8192 47.1302C28.7076 47.2126 28.5725 47.2571 28.4338 47.2571Z" fill="white"/>
<path d="M55.3389 60.5121C54.422 60.5123 53.5257 60.2405 52.7632 59.7312C52.0007 59.2218 51.4064 58.4979 51.0555 57.6508C50.7045 56.8037 50.6126 55.8715 50.7914 54.9722C50.9702 54.0729 51.4117 53.2468 52.06 52.5984C52.7083 51.95 53.5343 51.5084 54.4336 51.3295C55.3329 51.1506 56.2651 51.2423 57.1122 51.5932C57.9594 51.944 58.6834 52.5382 59.1929 53.3006C59.7023 54.063 59.9742 54.9593 59.9742 55.8762C59.9728 57.1052 59.484 58.2835 58.6151 59.1526C57.7461 60.0217 56.5679 60.5106 55.3389 60.5121ZM55.3389 52.5383C54.6786 52.5382 54.033 52.7339 53.4839 53.1007C52.9347 53.4675 52.5067 53.9889 52.254 54.599C52.0012 55.209 51.935 55.8804 52.0638 56.5281C52.1926 57.1758 52.5106 57.7707 52.9775 58.2376C53.4445 58.7046 54.0394 59.0226 54.6871 59.1514C55.3348 59.2802 56.0061 59.214 56.6162 58.9612C57.2263 58.7085 57.7477 58.2804 58.1145 57.7313C58.4813 57.1822 58.677 56.5366 58.6769 55.8762C58.6762 54.9911 58.3244 54.1423 57.6986 53.5163C57.0727 52.8902 56.2241 52.538 55.3389 52.537V52.5383Z" fill="white"/>
<path d="M55.3388 58.0545C54.9077 58.0546 54.4863 57.9269 54.1278 57.6875C53.7693 57.4481 53.4898 57.1077 53.3248 56.7095C53.1597 56.3113 53.1165 55.873 53.2005 55.4502C53.2845 55.0274 53.492 54.639 53.7968 54.3341C54.1016 54.0293 54.4899 53.8216 54.9127 53.7375C55.3355 53.6533 55.7738 53.6965 56.172 53.8614C56.5703 54.0263 56.9108 54.3057 57.1503 54.6641C57.3898 55.0225 57.5176 55.4439 57.5176 55.875C57.5171 56.4528 57.2874 57.0067 56.8789 57.4153C56.4705 57.8239 55.9166 58.0538 55.3388 58.0545ZM55.3388 54.9935C55.1643 54.9934 54.9936 55.045 54.8485 55.1419C54.7033 55.2388 54.5901 55.3766 54.5233 55.5378C54.4564 55.699 54.4389 55.8764 54.4729 56.0476C54.5069 56.2188 54.591 56.376 54.7144 56.4995C54.8378 56.6229 54.995 56.7069 55.1662 56.7409C55.3374 56.7749 55.5148 56.7574 55.676 56.6906C55.8373 56.6237 55.975 56.5105 56.0719 56.3654C56.1688 56.2202 56.2204 56.0495 56.2203 55.875C56.22 55.6413 56.127 55.4173 55.9617 55.2521C55.7965 55.0868 55.5725 54.9938 55.3388 54.9935Z" fill="white"/>
<path d="M29.323 58.0545C28.892 58.0545 28.4706 57.9267 28.1122 57.6872C27.7538 57.4477 27.4744 57.1073 27.3095 56.7091C27.1445 56.3108 27.1013 55.8726 27.1854 55.4498C27.2695 55.0271 27.4771 54.6387 27.7819 54.3339C28.0867 54.0291 28.475 53.8215 28.8978 53.7374C29.3206 53.6533 29.7588 53.6965 30.1571 53.8615C30.5553 54.0264 30.8957 54.3058 31.1352 54.6642C31.3747 55.0226 31.5025 55.444 31.5025 55.875C31.502 56.4529 31.2722 57.0069 30.8636 57.4156C30.4549 57.8242 29.9009 58.054 29.323 58.0545ZM29.323 54.9935C29.1485 54.9935 28.9779 55.0453 28.8328 55.1422C28.6878 55.2392 28.5747 55.377 28.5079 55.5382C28.4412 55.6995 28.4238 55.8769 28.4579 56.048C28.4919 56.2191 28.576 56.3763 28.6995 56.4997C28.8229 56.623 28.9801 56.707 29.1513 56.741C29.3225 56.7749 29.4999 56.7574 29.6611 56.6905C29.8222 56.6236 29.96 56.5105 30.0568 56.3653C30.1537 56.2201 30.2053 56.0495 30.2052 55.875C30.205 55.6412 30.112 55.417 29.9466 55.2517C29.7811 55.0864 29.5569 54.9935 29.323 54.9935Z" fill="white"/>
<path d="M29.323 60.6082C28.3865 60.6082 27.471 60.3305 26.6923 59.8102C25.9136 59.2899 25.3067 58.5504 24.9483 57.6851C24.5899 56.8199 24.4962 55.8678 24.6789 54.9493C24.8616 54.0308 25.3126 53.1871 25.9748 52.5248C26.637 51.8626 27.4807 51.4116 28.3992 51.2289C29.3178 51.0462 30.2699 51.14 31.1351 51.4984C32.0003 51.8568 32.7398 52.4637 33.2601 53.2424C33.7805 54.0211 34.0582 54.9366 34.0582 55.8731C34.0573 57.1287 33.5581 58.3326 32.6703 59.2204C31.7825 60.1082 30.5786 60.6074 29.323 60.6082ZM29.323 52.4391C28.6431 52.4391 27.9784 52.6408 27.4131 53.0185C26.8477 53.3963 26.4071 53.9332 26.1469 54.5614C25.8867 55.1896 25.8186 55.8808 25.9512 56.5477C26.0839 57.2145 26.4113 57.8271 26.8921 58.3079C27.3729 58.7887 27.9855 59.1161 28.6523 59.2488C29.3192 59.3814 30.0104 59.3133 30.6386 59.0531C31.2668 58.7929 31.8037 58.3523 32.1815 57.7869C32.5592 57.2216 32.7609 56.5569 32.7609 55.877C32.7609 55.4255 32.6719 54.9785 32.4992 54.5614C32.3264 54.1443 32.0732 53.7653 31.7539 53.4461C31.4347 53.1268 31.0557 52.8736 30.6386 52.7008C30.2215 52.5281 29.7745 52.4391 29.323 52.4391Z" fill="white"/>
<path d="M45.9469 50.5003H44.6496C44.4776 50.5003 44.3126 50.432 44.191 50.3103C44.0693 50.1887 44.001 50.0237 44.001 49.8516C44.001 49.6796 44.0693 49.5146 44.191 49.393C44.3126 49.2713 44.4776 49.203 44.6496 49.203H45.9469C46.119 49.203 46.2839 49.2713 46.4056 49.393C46.5272 49.5146 46.5956 49.6796 46.5956 49.8516C46.5956 50.0237 46.5272 50.1887 46.4056 50.3103C46.2839 50.432 46.119 50.5003 45.9469 50.5003Z" fill="white"/>
<path d="M38.4874 50.5003H37.1902C37.0181 50.5003 36.8531 50.432 36.7315 50.3103C36.6098 50.1887 36.5415 50.0237 36.5415 49.8516C36.5415 49.6796 36.6098 49.5146 36.7315 49.393C36.8531 49.2713 37.0181 49.203 37.1902 49.203H38.4874C38.6595 49.203 38.8245 49.2713 38.9461 49.393C39.0678 49.5146 39.1361 49.6796 39.1361 49.8516C39.1361 50.0237 39.0678 50.1887 38.9461 50.3103C38.8245 50.432 38.6595 50.5003 38.4874 50.5003Z" fill="white"/>
<path d="M40.5419 38.8246H32.5149C32.3428 38.8246 32.1778 38.7563 32.0562 38.6346C31.9346 38.513 31.8662 38.348 31.8662 38.176V35.5814C31.8662 35.4094 31.9346 35.2444 32.0562 35.1227C32.1778 35.0011 32.3428 34.9327 32.5149 34.9327H40.5419C40.7139 34.9327 40.8789 35.0011 41.0006 35.1227C41.1222 35.2444 41.1905 35.4094 41.1905 35.5814V38.176C41.1905 38.348 41.1222 38.513 41.0006 38.6346C40.8789 38.7563 40.7139 38.8246 40.5419 38.8246ZM33.1635 37.5273H39.8932V36.23H33.1635V37.5273Z" fill="white"/>
<path d="M46.3655 36.23H26.6914C26.5193 36.23 26.3544 36.1617 26.2327 36.0401C26.1111 35.9184 26.0427 35.7534 26.0427 35.5814C26.0427 35.4094 26.1111 35.2444 26.2327 35.1227C26.3544 35.0011 26.5193 34.9327 26.6914 34.9327H46.3655C46.5376 34.9327 46.7026 35.0011 46.8242 35.1227C46.9458 35.2444 47.0142 35.4094 47.0142 35.5814C47.0142 35.7534 46.9458 35.9184 46.8242 36.0401C46.7026 36.1617 46.5376 36.23 46.3655 36.23Z" fill="white"/>
<path d="M44.7794 36.2275H33.0246C32.8526 36.2275 32.6876 36.1591 32.566 36.0375C32.4443 35.9158 32.376 35.7508 32.376 35.5788C32.376 35.4068 32.4443 35.2418 32.566 35.1202C32.6876 34.9985 32.8526 34.9302 33.0246 34.9302H44.1308V26.6787C44.1308 26.5775 44.0906 26.4805 44.0191 26.409C43.9476 26.3375 43.8505 26.2973 43.7494 26.2973H34.0547C33.9536 26.2975 33.8567 26.3377 33.7852 26.4092C33.7137 26.4807 33.6734 26.5776 33.6733 26.6787V29.0528C33.6733 29.2248 33.6049 29.3898 33.4833 29.5114C33.3616 29.6331 33.1967 29.7014 33.0246 29.7014C32.8526 29.7014 32.6876 29.6331 32.566 29.5114C32.4443 29.3898 32.376 29.2248 32.376 29.0528V26.6787C32.3765 26.2336 32.5535 25.807 32.8682 25.4922C33.1829 25.1775 33.6096 25.0005 34.0547 25H43.7474C44.1928 25 44.62 25.1768 44.9351 25.4916C45.2503 25.8063 45.4276 26.2333 45.4281 26.6787V35.5788C45.4281 35.7508 45.3597 35.9158 45.2381 36.0375C45.1165 36.1591 44.9515 36.2275 44.7794 36.2275Z" fill="white"/>
<path d="M38.9014 36.23H28.6884C28.5164 36.23 28.3514 36.1617 28.2298 36.04C28.1081 35.9184 28.0398 35.7534 28.0398 35.5814V30.0815C28.0403 29.6362 28.2174 29.2093 28.5322 28.8943C28.847 28.5794 29.2739 28.4022 29.7191 28.4015H37.8701C38.3155 28.402 38.7425 28.5792 39.0574 28.8941C39.3724 29.2091 39.5496 29.6361 39.5501 30.0815V35.5814C39.5501 35.7534 39.4817 35.9184 39.3601 36.04C39.2384 36.1617 39.0734 36.23 38.9014 36.23ZM29.3371 34.9327H38.2528V30.0815C38.2526 29.98 38.2122 29.8828 38.1405 29.8111C38.0688 29.7393 37.9715 29.699 37.8701 29.6988H29.7191C29.6178 29.699 29.5206 29.7394 29.449 29.8111C29.3773 29.8829 29.3371 29.9801 29.3371 30.0815V34.9327Z" fill="white"/>
</svg>
